<svg width="897" height="73" viewBox="0 0 897 73" fill="none" xmlns="http://www.w3.org/2000/svg">
<path d="M20.36 70.9601C15.4533 70.9601 11.56 70.0801 8.68001 68.3201C5.85335 66.5067 3.85335 64 2.68001 60.8C1.50668 57.5467 0.920013 53.7334 0.920013 49.36V26C0.920013 21.52 1.50668 17.68 2.68001 14.48C3.85335 11.2267 5.85335 8.72002 8.68001 6.96002C11.56 5.20002 15.4533 4.32002 20.36 4.32002C25.16 4.32002 28.8933 5.12002 31.56 6.72003C34.28 8.26669 36.2 10.4533 37.32 13.28C38.44 16.1067 39 19.36 39 23.04V28.64H25V22.16C25 20.88 24.92 19.6533 24.76 18.48C24.6533 17.3067 24.28 16.3467 23.64 15.6C23 14.8 21.9067 14.4 20.36 14.4C18.8667 14.4 17.7467 14.8 17 15.6C16.3067 16.4 15.8533 17.4133 15.64 18.64C15.48 19.8134 15.4 21.0667 15.4 22.4V52.88C15.4 54.32 15.5067 55.6534 15.72 56.88C15.9867 58.0534 16.4667 59.0134 17.16 59.76C17.9067 60.4534 18.9733 60.8 20.36 60.8C21.8533 60.8 22.92 60.4267 23.56 59.68C24.2 58.88 24.6 57.8667 24.76 56.64C24.92 55.4134 25 54.16 25 52.88V46.08H39V51.68C39 55.36 38.44 58.6667 37.32 61.6C36.2533 64.48 34.36 66.7734 31.64 68.48C28.9733 70.1334 25.2133 70.9601 20.36 70.9601Z" fill="black"/>
<path d="M168.473 70.9601C163.513 70.9601 159.62 70.1601 156.793 68.5601C154.02 66.9067 152.073 64.5334 150.953 61.44C149.833 58.2934 149.273 54.4534 149.273 49.92V5.20002H163.433V52.08C163.433 53.4134 163.54 54.7467 163.753 56.08C163.966 57.4134 164.42 58.5067 165.113 59.36C165.86 60.2134 166.98 60.64 168.473 60.64C170.02 60.64 171.14 60.2134 171.833 59.36C172.526 58.5067 172.953 57.4134 173.113 56.08C173.326 54.7467 173.433 53.4134 173.433 52.08V5.20002H187.673V49.92C187.673 54.4534 187.086 58.2934 185.913 61.44C184.793 64.5334 182.846 66.9067 180.073 68.5601C177.3 70.1601 173.433 70.9601 168.473 70.9601Z" fill="black"/>
<path d="M224.784 70.0001V5.20002H234.864L248.144 36.4V5.20002H259.984V70.0001H250.304L237.024 36.4V70.0001H224.784Z" fill="black"/>
<path d="M303.468 70.0001V15.84H293.708V5.20002H327.548V15.84H317.868V70.0001H303.468Z" fill="black"/>
<path d="M361.253 70.0001V5.20002H379.093C383.466 5.20002 387.253 5.68002 390.453 6.64002C393.653 7.60002 396.133 9.33335 397.893 11.84C399.706 14.2934 400.613 17.7867 400.613 22.32C400.613 24.9867 400.4 27.36 399.973 29.44C399.546 31.52 398.746 33.3333 397.573 34.88C396.453 36.3733 394.826 37.6267 392.693 38.64L401.573 70.0001H386.773L379.653 40.96H375.573V70.0001H361.253ZM375.573 32.72H379.573C381.6 32.72 383.173 32.3733 384.293 31.68C385.413 30.9333 386.186 29.8933 386.613 28.56C387.093 27.1733 387.333 25.52 387.333 23.6C387.333 20.8267 386.826 18.6667 385.813 17.12C384.8 15.5733 382.933 14.8 380.213 14.8H375.573V32.72Z" fill="black"/>
<path d="M437.302 70.0001V5.20002H451.622V70.0001H437.302Z" fill="black"/>
<path d="M489.284 70.0001V5.20002H518.404V14.96H503.604V31.04H514.884V40.96H503.604V60.32H518.564V70.0001H489.284Z" fill="black"/>
<path d="M570.266 70.9601C566.212 70.9601 562.826 70.24 560.106 68.8C557.386 67.36 555.332 65.1467 553.946 62.16C552.559 59.12 551.786 55.2 551.626 50.4L563.866 48.56C563.919 51.3334 564.159 53.5734 564.586 55.28C565.066 56.9867 565.706 58.2134 566.506 58.96C567.359 59.7067 568.372 60.08 569.546 60.08C571.039 60.08 571.999 59.5734 572.426 58.56C572.906 57.5467 573.146 56.48 573.146 55.36C573.146 52.6934 572.506 50.4534 571.226 48.64C569.946 46.7734 568.212 44.9067 566.026 43.04L560.426 38.16C557.972 36.08 555.892 33.7333 554.186 31.12C552.532 28.4533 551.706 25.1734 551.706 21.28C551.706 15.7867 553.332 11.6 556.586 8.72002C559.839 5.78669 564.266 4.32002 569.866 4.32002C573.332 4.32002 576.106 4.90669 578.186 6.08002C580.319 7.25336 581.919 8.80002 582.986 10.72C584.106 12.5867 584.852 14.5867 585.226 16.72C585.652 18.8 585.892 20.8 585.946 22.72L573.626 24.24C573.572 22.32 573.439 20.6667 573.226 19.28C573.066 17.84 572.692 16.7467 572.106 16C571.519 15.2 570.612 14.8 569.386 14.8C568.052 14.8 567.066 15.36 566.426 16.48C565.839 17.6 565.546 18.72 565.546 19.84C565.546 22.24 566.106 24.2133 567.226 25.76C568.399 27.2533 569.919 28.8267 571.786 30.48L577.146 35.2C579.972 37.6 582.346 40.32 584.266 43.36C586.239 46.4 587.226 50.16 587.226 54.64C587.226 57.68 586.532 60.4534 585.146 62.96C583.759 65.4134 581.786 67.36 579.226 68.8C576.719 70.24 573.732 70.9601 570.266 70.9601Z" fill="black"/>
<path d="M670.708 70.0001V5.20002H685.028V70.0001H670.708Z" fill="black"/>
<path d="M722.691 70.0001V5.20002H732.771L746.051 36.4V5.20002H757.891V70.0001H748.211L734.931 36.4V70.0001H722.691Z" fill="black"/>
<path d="M795.534 70.0001V5.20002H823.534V14.88H809.854V31.2H821.774V41.2H809.854V70.0001H795.534Z" fill="black"/>
<path d="M876.782 70.9601C871.929 70.9601 868.089 70.1067 865.262 68.4001C862.435 66.6934 860.409 64.24 859.182 61.04C857.955 57.84 857.342 54.0267 857.342 49.6V25.52C857.342 21.04 857.955 17.2267 859.182 14.08C860.409 10.9333 862.435 8.53336 865.262 6.88002C868.089 5.17336 871.929 4.32002 876.782 4.32002C881.689 4.32002 885.555 5.17336 888.382 6.88002C891.262 8.53336 893.315 10.9333 894.542 14.08C895.769 17.2267 896.382 21.04 896.382 25.52V49.6C896.382 54.0267 895.769 57.84 894.542 61.04C893.315 64.24 891.262 66.6934 888.382 68.4001C885.555 70.1067 881.689 70.9601 876.782 70.9601ZM876.782 60.8C878.275 60.8 879.369 60.4267 880.062 59.68C880.755 58.9334 881.209 57.9734 881.422 56.8C881.635 55.6267 881.742 54.4267 881.742 53.2V22C881.742 20.72 881.635 19.52 881.422 18.4C881.209 17.2267 880.755 16.2667 880.062 15.52C879.369 14.7733 878.275 14.4 876.782 14.4C875.395 14.4 874.355 14.7733 873.662 15.52C872.969 16.2667 872.515 17.2267 872.302 18.4C872.089 19.52 871.982 20.72 871.982 22V53.2C871.982 54.4267 872.062 55.6267 872.222 56.8C872.435 57.9734 872.862 58.9334 873.502 59.68C874.195 60.4267 875.289 60.8 876.782 60.8Z" fill="black"/>
<path d="M107.561 36.3415H100.546L104.051 24.0362L107.561 36.3415Z" fill="#70CC40"/>
<path d="M107.561 36.7297H100.542C100.483 36.7291 100.424 36.7147 100.371 36.6878C100.318 36.6609 100.271 36.6221 100.236 36.5744C100.199 36.527 100.175 36.4718 100.163 36.4132C100.152 36.3547 100.154 36.2942 100.17 36.2367L103.663 23.9313C103.687 23.8507 103.736 23.7799 103.803 23.7295C103.87 23.6791 103.952 23.6518 104.036 23.6518C104.12 23.6518 104.202 23.6791 104.269 23.7295C104.336 23.7799 104.385 23.8507 104.409 23.9313L107.902 36.2367C107.918 36.2942 107.92 36.3547 107.909 36.4132C107.897 36.4718 107.872 36.527 107.836 36.5744C107.804 36.6182 107.762 36.6546 107.715 36.6814C107.667 36.7081 107.615 36.7246 107.561 36.7297ZM101.059 35.9533H107.044L104.051 25.4724L101.059 35.9533Z" fill="#093F68"/>
<path d="M122.56 36.3415H115.542L119.051 24.0362L122.56 36.3415Z" fill="#70CC40"/>
<path d="M122.56 36.7297H115.545C115.484 36.7319 115.424 36.7198 115.368 36.6941C115.312 36.6684 115.264 36.63 115.226 36.5819C115.188 36.5338 115.162 36.4775 115.15 36.4175C115.138 36.3575 115.141 36.2956 115.157 36.2367L118.651 23.9313C118.674 23.8507 118.723 23.7799 118.791 23.7295C118.858 23.6791 118.94 23.6518 119.024 23.6518C119.108 23.6518 119.189 23.6791 119.256 23.7295C119.324 23.7799 119.373 23.8507 119.396 23.9313L122.89 36.2367C122.906 36.294 122.909 36.3542 122.898 36.4128C122.887 36.4713 122.863 36.5266 122.828 36.5744C122.796 36.6173 122.756 36.6532 122.71 36.6799C122.664 36.7066 122.613 36.7235 122.56 36.7297ZM116.058 35.9533H122.044L119.051 25.4724L116.058 35.9533Z" fill="#093F68"/>
<path d="M89.4364 17.3672L104.478 36.3415H70.268L85.31 17.3672C85.5568 17.0567 85.8706 16.8059 86.2278 16.6336C86.585 16.4612 86.9766 16.3717 87.3732 16.3717C87.7698 16.3717 88.1614 16.4612 88.5186 16.6336C88.8758 16.8059 89.1895 17.0567 89.4364 17.3672Z" fill="#AD7972"/>
<path d="M104.478 36.7297H70.268C70.1953 36.7298 70.124 36.7095 70.0622 36.6711C70.0004 36.6327 69.9507 36.5776 69.9187 36.5123C69.8868 36.4463 69.8743 36.3727 69.8825 36.2998C69.8908 36.227 69.9195 36.158 69.9653 36.1008L85.0034 17.1265C85.2865 16.7693 85.6467 16.4807 86.0571 16.2823C86.4675 16.0839 86.9174 15.9809 87.3732 15.9809C87.8291 15.9809 88.279 16.0839 88.6894 16.2823C89.0997 16.4807 89.46 16.7693 89.7431 17.1265L104.781 36.1008C104.827 36.158 104.856 36.227 104.864 36.2998C104.872 36.3727 104.86 36.4463 104.828 36.5123C104.796 36.5776 104.746 36.6327 104.684 36.6711C104.623 36.7095 104.551 36.7298 104.478 36.7297ZM71.0716 35.9533H103.679L89.1337 17.6118C88.9241 17.3453 88.6567 17.1299 88.3518 16.9818C88.0468 16.8337 87.7122 16.7568 87.3732 16.7568C87.0342 16.7568 86.6997 16.8337 86.3947 16.9818C86.0898 17.1299 85.8224 17.3453 85.6128 17.6118L71.0716 35.9533Z" fill="#093F68"/>
<path d="M75.2834 21.0239L87.4296 36.3415H59.0108L71.1686 21.0239C71.4152 20.7149 71.7281 20.4654 72.0843 20.2939C72.4405 20.1224 72.8307 20.0334 73.226 20.0334C73.6213 20.0334 74.0115 20.1224 74.3677 20.2939C74.7239 20.4654 75.0368 20.7149 75.2834 21.0239Z" fill="#E28362"/>
<path d="M87.4295 36.7297H59.0108C58.9381 36.7298 58.8667 36.7095 58.805 36.6711C58.7432 36.6327 58.6935 36.5776 58.6614 36.5123C58.6296 36.4463 58.617 36.3727 58.6253 36.2998C58.6335 36.227 58.6622 36.158 58.708 36.1008L70.8503 20.7832C71.1335 20.426 71.4937 20.1374 71.9041 19.939C72.3144 19.7406 72.7644 19.6376 73.2202 19.6376C73.676 19.6376 74.1259 19.7406 74.5363 19.939C74.9467 20.1374 75.3069 20.426 75.59 20.7832L87.7323 36.1008C87.7774 36.1579 87.8056 36.2266 87.8136 36.2989C87.8216 36.3712 87.8091 36.4443 87.7775 36.5099C87.7459 36.5755 87.6966 36.6309 87.6351 36.6697C87.5735 36.7086 87.5023 36.7294 87.4295 36.7297ZM59.8143 35.9533H86.626L74.9806 21.2646C74.7701 20.9994 74.5025 20.7852 74.1977 20.638C73.8928 20.4908 73.5587 20.4143 73.2202 20.4143C72.8817 20.4143 72.5475 20.4908 72.2427 20.638C71.9379 20.7852 71.6702 20.9994 71.4598 21.2646L59.8143 35.9533Z" fill="#093F68"/>
<path d="M128.429 36.3415C128.429 42.794 126.672 49.1246 123.345 54.6536C120.019 60.1826 115.249 64.7012 109.548 67.7241C103.848 70.747 97.4316 72.16 90.9885 71.8116C84.5454 71.4632 78.3189 69.3663 72.9776 65.7463C68.6316 62.8035 64.9927 58.9331 62.3231 54.4142C59.6535 49.8953 58.0198 44.8404 57.5396 39.6139C57.4361 38.5347 57.3843 37.444 57.3843 36.3415H128.429Z" fill="#68E1FD"/>
<path d="M92.9068 72.2521C83.9541 72.2549 75.3235 68.912 68.7084 62.8794C62.0934 56.8468 57.9714 48.56 57.1514 39.6449C57.0505 38.5619 57 37.4478 57 36.3376C57 36.2346 57.0409 36.1359 57.1137 36.0631C57.1865 35.9903 57.2852 35.9494 57.3882 35.9494H128.425C128.528 35.9494 128.627 35.9903 128.7 36.0631C128.773 36.1359 128.814 36.2346 128.814 36.3376C128.819 41.0547 127.893 45.7266 126.091 50.0857C124.288 54.4449 121.644 58.4058 118.309 61.7417C114.973 65.0775 111.013 67.723 106.654 69.5265C102.296 71.33 97.6239 72.2562 92.9068 72.2521ZM57.7764 36.7296C57.7764 37.6885 57.8385 38.6434 57.9239 39.5789C58.7439 48.5516 62.98 56.8662 69.7566 62.804C76.5333 68.7419 85.3323 71.849 94.3349 71.4832C103.338 71.1174 111.855 67.3065 118.128 60.8383C124.4 54.3702 127.948 45.7393 128.037 36.7296H57.7764Z" fill="#093F68"/>
<path d="M92.9068 4.39777e-05C83.9541 -0.0027377 75.3235 3.34013 68.7084 9.37273C62.0934 15.4053 57.9714 23.6922 57.1514 32.6072C57.0505 33.6903 57 34.8043 57 35.9145C57 36.0175 57.0409 36.1162 57.1137 36.189C57.1865 36.2618 57.2852 36.3027 57.3882 36.3027H128.425C128.528 36.3027 128.627 36.2618 128.7 36.189C128.773 36.1162 128.814 36.0175 128.814 35.9145C128.819 31.1974 127.893 26.5256 126.091 22.1664C124.288 17.8073 121.644 13.8464 118.309 10.5105C114.973 7.17463 111.013 4.52922 106.654 2.7257C102.296 0.922177 97.6239 -0.00404201 92.9068 4.39777e-05ZM57.7764 35.5225C57.7764 34.5637 57.8385 33.6087 57.9239 32.6732C58.7439 23.7006 62.98 15.386 69.7566 9.44812C76.5333 3.51027 85.3323 0.40313 94.3349 0.768976C103.338 1.13482 111.855 4.94568 118.128 11.4138C124.4 17.882 127.948 26.5129 128.037 35.5225H57.7764Z" fill="#093F68"/>
<path d="M92.6195 51.8843C93.5046 52.9828 95.0728 53.1808 96.4547 53.468C98.1442 53.8189 99.7735 54.4139 101.291 55.2342C102.068 55.6535 102.891 56.2629 102.937 57.1441C103.003 58.3086 101.726 59.0074 100.806 59.7255C99.0594 61.0958 98.2132 63.4132 98.3102 65.6298C98.4506 67.5912 99.1038 69.4814 100.205 71.1109C105.33 70.032 110.153 67.8345 114.33 64.6752C118.508 61.516 121.935 57.473 124.369 52.8353C123.82 52.7527 123.286 52.5933 122.781 52.3617C120.114 51.1118 119.043 48.3945 116.958 46.504C114.078 43.8955 109.789 43.7868 105.907 43.8955C102.413 43.9847 98.8149 44.1517 95.6357 45.6035C94.4129 46.1624 93.2328 46.9427 92.5302 48.0956C91.8276 49.2485 91.7694 50.84 92.6195 51.8843Z" fill="#70CC40"/>
<path d="M100.208 71.4991C100.143 71.4996 100.078 71.4835 100.02 71.4523C99.9628 71.4211 99.9139 71.3757 99.8785 71.3205C98.7379 69.6367 98.0679 67.6788 97.9376 65.6492C97.8289 63.1726 98.8421 60.7853 100.581 59.4383L101.055 59.085C101.831 58.5261 102.607 57.9515 102.565 57.1868C102.534 56.6279 102.06 56.1077 101.121 55.5953C99.6341 54.7931 98.0388 54.2112 96.3849 53.8679L95.9346 53.7786C94.6575 53.5263 93.2173 53.239 92.3284 52.1482C91.4356 51.0536 91.389 49.3106 92.2197 47.9171C92.8602 46.8457 93.9277 45.9761 95.4843 45.2697C98.6519 43.8256 102.223 43.6238 105.911 43.5267C109.828 43.4219 114.249 43.5267 117.234 46.244C118.005 46.9857 118.709 47.7936 119.338 48.6585C120.386 50.0171 121.38 51.2981 122.956 52.0395C123.43 52.2555 123.931 52.4044 124.446 52.4821C124.507 52.4922 124.564 52.5164 124.613 52.5529C124.663 52.5893 124.703 52.6369 124.73 52.6917C124.758 52.7464 124.772 52.8069 124.772 52.8683C124.772 52.9297 124.758 52.9903 124.73 53.0449C122.274 57.7376 118.808 61.8265 114.58 65.0165C110.352 68.2065 105.469 70.418 100.282 71.4913C100.258 71.4972 100.233 71.4998 100.208 71.4991ZM107.537 44.2604C106.994 44.2604 106.45 44.2604 105.919 44.2837C102.177 44.3807 98.8304 44.5709 95.7948 45.9567C94.3857 46.6011 93.4308 47.3658 92.8718 48.2858C92.2081 49.4038 92.2275 50.778 92.9184 51.6281C93.6249 52.5015 94.8593 52.746 96.0743 52.9867L96.5324 53.076C98.2609 53.444 99.9268 54.0612 101.478 54.9082C102.677 55.5604 103.283 56.2901 103.326 57.1403C103.392 58.3281 102.386 59.0617 101.505 59.7061C101.346 59.8226 101.191 59.9352 101.047 60.0477C99.4942 61.2589 98.6014 63.3978 98.6984 65.6298C98.8226 67.4288 99.4052 69.1661 100.391 70.6761C105.326 69.6095 109.972 67.4877 114.009 64.4564C118.047 61.4251 121.381 57.556 123.783 53.1148C123.382 53.0256 122.992 52.8956 122.618 52.7266C120.871 51.9076 119.777 50.4907 118.736 49.1204C118.134 48.2864 117.46 47.5071 116.722 46.7913C114.323 44.6408 110.852 44.2604 107.537 44.2604Z" fill="#093F68"/>
<path d="M78.7693 54.6559L74.1654 57.0354C73.4201 57.4236 72.6399 57.8351 72.1546 58.5299C71.6694 59.2248 71.5996 60.2729 72.2245 60.859C72.6127 61.2123 73.1989 61.3016 73.6297 61.6354C74.2547 62.1206 74.4061 63.0445 74.1732 63.8015C73.9136 64.5324 73.5067 65.2023 72.9776 65.7695C68.6317 62.8267 64.9927 58.9564 62.3231 54.4375C59.6536 49.9186 58.0198 44.8637 57.5396 39.6371C60.4588 39.4586 63.5875 40.0447 65.1169 42.1914C67.2907 45.2502 67.6401 49.757 72.6088 49.6289C74.3867 49.5862 76.0171 48.6818 77.7755 48.3829C79.534 48.084 81.735 48.7711 82.0766 50.514C82.4259 52.3695 80.485 53.7825 78.7693 54.6559Z" fill="#70CC40"/>
<path d="M72.9776 66.1344C72.9001 66.1346 72.8244 66.1116 72.7602 66.0684C68.3664 63.0933 64.6873 59.1804 61.9882 54.6119C59.2891 50.0433 57.6371 44.9328 57.1514 39.6488C57.147 39.5971 57.1529 39.545 57.1689 39.4957C57.1849 39.4464 57.2107 39.4007 57.2446 39.3615C57.278 39.3222 57.3188 39.29 57.3648 39.2666C57.4108 39.2433 57.461 39.2294 57.5124 39.2257C59.6552 39.0937 63.5331 39.2761 65.4313 41.9429C66.0084 42.8064 66.5147 43.7151 66.9452 44.6602C68.1408 47.1057 69.1734 49.2213 72.3798 49.2213H72.5777C73.5758 49.148 74.5579 48.9296 75.493 48.5731C76.2107 48.3255 76.9449 48.1284 77.6901 47.983C79.6815 47.6492 82.061 48.4877 82.4375 50.4208C82.7636 52.0939 81.5835 53.6388 78.9245 55.0052L74.3246 57.3848C73.6219 57.7536 72.8922 58.134 72.4535 58.7551C72.0653 59.283 71.9993 60.1331 72.4535 60.5601C72.6442 60.7068 72.8563 60.8233 73.0824 60.9056C73.3459 61.0038 73.5962 61.1342 73.8277 61.2938C74.6351 61.9187 74.7516 63.0406 74.5148 63.8752C74.2413 64.6566 73.8091 65.3729 73.2454 65.9791C73.2138 66.022 73.1737 66.0579 73.1276 66.0846C73.0816 66.1113 73.0305 66.1283 72.9776 66.1344ZM57.9705 39.9826C58.4956 45.0166 60.1027 49.8776 62.6815 54.2326C65.2603 58.5876 68.75 62.3338 72.9116 65.2144C73.3093 64.7606 73.6139 64.233 73.8083 63.6617C73.9713 63.095 73.9131 62.3069 73.3968 61.9071C73.2152 61.7839 73.0197 61.6823 72.8145 61.6043C72.5109 61.4903 72.2277 61.3277 71.9761 61.123C71.1648 60.3816 71.2735 59.1044 71.848 58.2931C72.4225 57.4818 73.2454 57.0704 73.9946 56.6822L78.5984 54.2987C80.9275 53.107 81.9562 51.8493 81.7039 50.5528C81.4283 49.1243 79.4874 48.4605 77.8492 48.7322C77.1414 48.8696 76.4447 49.0591 75.7647 49.299C74.7572 49.6754 73.701 49.9054 72.6282 49.9822C68.7464 50.0831 67.4848 47.4939 66.262 44.9901C65.8491 44.083 65.3636 43.2106 64.8102 42.3816C63.6224 40.7357 61.1458 39.8739 57.9705 39.9826Z" fill="#093F68"/>
<path d="M84.4522 63.1299C85.0833 63.7579 85.801 64.2925 86.5833 64.7176C87.0657 64.93 87.5133 65.214 87.9109 65.5599C88.1109 65.7329 88.2547 65.9616 88.3238 66.2168C88.393 66.472 88.3844 66.742 88.2991 66.9923C88.1937 67.1825 88.0421 67.343 87.8582 67.459C87.6743 67.5751 87.4641 67.6428 87.2471 67.6561C86.814 67.6731 86.3811 67.618 85.9661 67.493C83.9088 66.9845 81.6379 66.3285 80.5316 64.5196C79.9532 63.5724 79.9998 62.0624 81.1643 61.5345C82.4841 60.9328 83.6099 62.2836 84.4522 63.1299Z" fill="#70CC40"/>
<path d="M87.022 68.052C86.6279 68.0379 86.2369 67.9766 85.8574 67.8696C83.6215 67.3184 81.3429 66.6235 80.1822 64.7214C79.9786 64.3847 79.8462 64.0097 79.7935 63.6198C79.7407 63.2298 79.7687 62.8332 79.8755 62.4544C79.9571 62.1738 80.0991 61.9144 80.2916 61.6944C80.484 61.4745 80.7223 61.2993 80.9896 61.1812C82.4375 60.5252 83.6137 61.7247 84.4833 62.602C84.5687 62.6912 84.6541 62.7766 84.7356 62.8543C85.3391 63.4575 86.0269 63.97 86.7774 64.3759L87.0258 64.5079C87.4526 64.7035 87.8457 64.9656 88.1904 65.2843C88.443 65.516 88.6208 65.8178 88.701 66.1511C88.7812 66.4844 88.7602 66.834 88.6407 67.1553C88.5078 67.4067 88.3128 67.6199 88.0744 67.7748C87.8359 67.9297 87.5619 68.0211 87.2782 68.0404L87.022 68.052ZM81.8242 61.7712C81.6471 61.7735 81.4725 61.8132 81.3118 61.8877C81.1454 61.9616 80.9972 62.0712 80.8778 62.2087C80.7584 62.3462 80.6707 62.5083 80.6209 62.6835C80.5469 62.9572 80.5291 63.2431 80.5685 63.524C80.6078 63.8048 80.7035 64.0748 80.8499 64.3177C81.8553 65.9675 83.9553 66.6041 86.0438 67.1165C86.4206 67.2323 86.8144 67.2835 87.2083 67.2679C87.3582 67.2626 87.5043 67.2197 87.6332 67.143C87.7621 67.0663 87.8696 66.9584 87.9458 66.8293C87.9955 66.6521 87.9941 66.4644 87.9419 66.288C87.8898 66.1115 87.7889 65.9533 87.6508 65.8316C87.3598 65.5699 87.0298 65.3551 86.6726 65.195L86.4164 65.0591C85.6 64.6186 84.852 64.0615 84.196 63.4055C84.1106 63.324 84.0252 63.2347 83.9359 63.1454C83.1673 62.3768 82.5113 61.7712 81.8242 61.7712Z" fill="#093F68"/>
<path d="M100.542 36.3065C101.055 34.8509 100.744 32.6499 98.8654 32.4907C98.088 32.4632 97.326 32.7121 96.7149 33.1933C96.7109 32.882 96.6252 32.5773 96.4665 32.3095C96.3077 32.0417 96.0814 31.8203 95.8103 31.6674C95.5391 31.5145 95.2325 31.4355 94.9212 31.4383C94.6099 31.4411 94.3048 31.5256 94.0364 31.6833C93.6987 31.8813 93.5473 32.1996 93.2601 32.4597C92.8991 32.778 93.0854 32.7159 92.6273 32.5916C91.9674 32.417 91.49 32.1724 90.7873 32.4053C90.3813 32.5439 90.0215 32.792 89.7475 33.1221C89.4735 33.4523 89.296 33.8517 89.2346 34.2764C88.9476 34.1506 88.6335 34.0992 88.3214 34.1271C88.0093 34.1549 87.7092 34.261 87.449 34.4355C86.9356 34.7925 86.5322 35.286 86.2844 35.8601C86.2095 36.0096 86.1446 36.1639 86.0904 36.3221L100.542 36.3065Z" fill="#70CC40"/>
<path d="M100.542 36.6947H86.0942C86.0318 36.6947 85.9705 36.6797 85.9152 36.6509C85.8599 36.6221 85.8123 36.5805 85.7766 36.5295C85.7408 36.4785 85.7178 36.4196 85.7095 36.3578C85.7013 36.296 85.7081 36.2332 85.7293 36.1746C85.7885 36.0046 85.8585 35.8387 85.9389 35.6777C86.22 35.0344 86.6776 34.4839 87.2587 34.09C87.7646 33.7612 88.3783 33.6416 88.9706 33.7562C89.0999 33.3549 89.3209 32.9892 89.616 32.688C89.9111 32.3869 90.2722 32.1585 90.6708 32.021C91.2393 31.8522 91.8482 31.881 92.3982 32.1025L92.7321 32.2035L92.9029 32.2501L93.0116 32.153C93.1021 32.0699 93.1853 31.9789 93.26 31.8813C93.421 31.6709 93.6182 31.4908 93.8423 31.3495C94.122 31.185 94.4353 31.0856 94.7587 31.0586C95.0821 31.0317 95.4075 31.0779 95.7106 31.1939C96.0138 31.3099 96.2869 31.4926 96.5098 31.7285C96.7327 31.9644 96.8996 32.2475 96.9982 32.5567C97.5743 32.223 98.2355 32.0651 98.9003 32.1025C99.2555 32.1238 99.6005 32.2292 99.907 32.4101C100.213 32.591 100.472 32.8421 100.663 33.1429C101.291 34.1133 101.237 35.4953 100.907 36.4347C100.881 36.5104 100.831 36.5761 100.766 36.6227C100.701 36.6692 100.623 36.6944 100.542 36.6947ZM86.6842 35.9184H100.271C100.504 35.1315 100.416 34.2844 100.026 33.5621C99.9008 33.3633 99.7296 33.1975 99.527 33.0786C99.3243 32.9597 99.0961 32.8912 98.8614 32.8789C98.177 32.8604 97.5079 33.0829 96.971 33.5078C96.9133 33.5499 96.8451 33.5753 96.7739 33.5812C96.7027 33.5871 96.6313 33.5732 96.5675 33.5411C96.5037 33.509 96.45 33.4599 96.4123 33.3992C96.3745 33.3386 96.3543 33.2687 96.3538 33.1972C96.3608 32.9059 96.2739 32.6201 96.1061 32.3819C95.9382 32.1438 95.6982 31.9659 95.4215 31.8745C95.1448 31.7832 94.8461 31.7832 94.5694 31.8746C94.2928 31.9659 94.0528 32.1439 93.885 32.382C93.7822 32.5075 93.6706 32.6256 93.5511 32.7353L93.4191 32.8556C93.3428 32.9533 93.2354 33.022 93.1146 33.0503C92.9939 33.0785 92.8671 33.0646 92.7554 33.0109L92.5613 32.9527L92.2002 32.8479C91.8037 32.6744 91.3596 32.6429 90.9426 32.7586C90.6082 32.8761 90.3124 33.083 90.0873 33.3567C89.8621 33.6304 89.7162 33.9605 89.6654 34.3113C89.6575 34.3734 89.6346 34.4327 89.5988 34.4841C89.563 34.5354 89.5152 34.5774 89.4597 34.6063C89.4045 34.6349 89.3433 34.6498 89.2811 34.6498C89.219 34.6498 89.1577 34.6349 89.1026 34.6063C88.8763 34.5097 88.6294 34.4715 88.3845 34.4952C88.1397 34.5189 87.9047 34.6039 87.7012 34.7422C87.2651 35.0352 86.9174 35.4419 86.6958 35.9184H86.6842Z" fill="#093F68"/>
<path d="M104.478 36.3415L96.0666 36.3415L100.274 21.5867L104.478 36.3415Z" fill="#70CC40"/>
<path d="M104.478 36.7297L96.0666 36.7297C96.0063 36.7297 95.9469 36.7156 95.893 36.6887C95.8391 36.6617 95.7922 36.6226 95.756 36.5744C95.7205 36.5266 95.6964 36.4713 95.6856 36.4128C95.6748 36.3542 95.6777 36.294 95.6939 36.2367L99.8979 21.4858C99.9203 21.4036 99.9691 21.331 100.037 21.2792C100.104 21.2275 100.187 21.1994 100.273 21.1994C100.358 21.1994 100.441 21.2275 100.508 21.2792C100.576 21.331 100.625 21.4036 100.647 21.4858L104.851 36.2367C104.867 36.294 104.87 36.3542 104.859 36.4128C104.849 36.4713 104.825 36.5266 104.789 36.5744C104.753 36.6226 104.706 36.6617 104.652 36.6887C104.598 36.7156 104.539 36.7297 104.478 36.7297ZM96.5829 35.9533H103.958L100.282 23.0036L96.5829 35.9533Z" fill="#093F68"/>
<path d="M115.41 36.3415H106.998L111.202 21.5867L115.41 36.3415Z" fill="#70CC40"/>
<path d="M115.421 36.7297H106.998C106.937 36.7297 106.878 36.7156 106.824 36.6887C106.77 36.6617 106.723 36.6226 106.687 36.5744C106.652 36.5266 106.627 36.4713 106.617 36.4128C106.606 36.3542 106.609 36.294 106.625 36.2367L110.829 21.4858C110.853 21.4052 110.902 21.3343 110.969 21.284C111.036 21.2336 111.118 21.2063 111.202 21.2063C111.286 21.2063 111.367 21.2336 111.435 21.284C111.502 21.3343 111.551 21.4052 111.574 21.4858L115.782 36.2367C115.798 36.2943 115.8 36.3547 115.789 36.4133C115.777 36.4718 115.752 36.527 115.716 36.5744C115.682 36.6206 115.637 36.6585 115.586 36.6853C115.535 36.7122 115.479 36.7273 115.421 36.7297ZM107.522 35.9533H114.897L111.206 23.0036L107.522 35.9533Z" fill="#093F68"/>
<path d="M111.765 36.3415H103.353L107.561 24.2108L111.765 36.3415Z" fill="#70CC40"/>
<path d="M111.765 36.7297H103.353C103.291 36.7294 103.23 36.7144 103.175 36.6858C103.12 36.6573 103.073 36.616 103.037 36.5655C103.002 36.515 102.978 36.4567 102.97 36.3955C102.961 36.3342 102.967 36.2718 102.988 36.2134L107.192 24.0827C107.218 24.0065 107.268 23.9403 107.333 23.8935C107.399 23.8467 107.478 23.8215 107.559 23.8215C107.639 23.8215 107.718 23.8467 107.784 23.8935C107.85 23.9403 107.899 24.0065 107.925 24.0827L112.133 36.2134C112.154 36.272 112.16 36.3347 112.151 36.3962C112.142 36.4576 112.119 36.5161 112.083 36.5666C112.047 36.6173 111.999 36.6586 111.944 36.687C111.888 36.7154 111.827 36.73 111.765 36.7297ZM103.9 35.9533H111.221L107.561 25.4064L103.9 35.9533Z" fill="#093F68"/>
<path d="M119.051 36.3415H110.639L114.847 21.5867L119.051 36.3415Z" fill="#70CC40"/>
<path d="M119.051 36.7296H110.639C110.579 36.7296 110.519 36.7156 110.465 36.6887C110.411 36.6617 110.364 36.6226 110.328 36.5744C110.293 36.5266 110.269 36.4713 110.258 36.4128C110.247 36.3542 110.25 36.2939 110.266 36.2367L114.474 21.4858C114.498 21.4018 114.549 21.3282 114.619 21.2768C114.689 21.2254 114.775 21.1992 114.862 21.2024C114.949 21.1992 115.035 21.2254 115.105 21.2768C115.176 21.3282 115.227 21.4018 115.25 21.4858L119.454 36.2367C119.471 36.2939 119.474 36.3542 119.463 36.4128C119.452 36.4713 119.428 36.5266 119.392 36.5744C119.353 36.627 119.301 36.6689 119.242 36.696C119.182 36.7232 119.116 36.7347 119.051 36.7296ZM111.155 35.9533H118.531L114.839 23.0036L111.155 35.9533Z" fill="#093F68"/>
<path d="M126.337 36.3415H117.925L122.133 24.2108L126.337 36.3415Z" fill="#70CC40"/>
<path d="M126.337 36.7297H117.925C117.863 36.7294 117.802 36.7144 117.747 36.6858C117.693 36.6573 117.645 36.616 117.61 36.5655C117.574 36.515 117.551 36.4567 117.542 36.3955C117.534 36.3342 117.54 36.2718 117.56 36.2134L121.764 24.0827C121.791 24.0065 121.84 23.9403 121.906 23.8935C121.972 23.8467 122.05 23.8215 122.131 23.8215C122.212 23.8215 122.29 23.8467 122.356 23.8935C122.422 23.9403 122.471 24.0065 122.498 24.0827L126.706 36.2134C126.726 36.272 126.732 36.3347 126.723 36.3962C126.715 36.4576 126.691 36.5161 126.655 36.5666C126.619 36.6173 126.571 36.6586 126.516 36.687C126.461 36.7154 126.399 36.73 126.337 36.7297ZM118.472 35.9533H125.793L122.133 25.4064L118.472 35.9533Z" fill="#093F68"/>
<path d="M125.603 16.7422C125.602 17.3662 125.354 17.9643 124.913 18.4059C124.473 18.8474 123.875 19.0964 123.251 19.0985H111.605C111.14 19.0974 110.686 18.9588 110.3 18.7C109.914 18.4413 109.612 18.074 109.434 17.6445C109.256 17.2149 109.209 16.7423 109.299 16.2861C109.389 15.8299 109.612 15.4106 109.94 15.0808C110.332 14.6864 110.853 14.4455 111.407 14.4015C111.515 13.904 111.739 13.4391 112.061 13.045C112.383 12.6508 112.793 12.3386 113.259 12.134C113.725 11.9294 114.233 11.8383 114.741 11.8681C115.249 11.8978 115.743 12.0477 116.182 12.3053C116.636 11.571 117.318 11.0048 118.123 10.6924C118.928 10.3799 119.812 10.3384 120.643 10.5741C121.474 10.8097 122.205 11.3097 122.726 11.9982C123.247 12.6868 123.529 13.5264 123.53 14.3899V14.4132C124.101 14.4806 124.627 14.7549 125.009 15.1841C125.391 15.6133 125.603 16.1677 125.603 16.7422Z" fill="white"/>
<path d="M123.251 19.4867H111.605C110.878 19.4857 110.181 19.1961 109.667 18.6815C109.153 18.1669 108.865 17.4694 108.865 16.7423C108.865 16.1039 109.088 15.4857 109.495 14.9944C109.903 14.5032 110.47 14.1699 111.097 14.0522C111.247 13.5569 111.501 13.0995 111.843 12.7111C112.185 12.3226 112.606 12.0121 113.078 11.8005C113.55 11.5888 114.062 11.4811 114.58 11.4845C115.097 11.4879 115.608 11.6023 116.077 11.8201C116.607 11.1029 117.344 10.5655 118.189 10.2804C119.033 9.9954 119.945 9.97646 120.801 10.2262C121.657 10.4759 122.415 10.9823 122.974 11.6769C123.533 12.3715 123.866 13.2209 123.926 14.1104C124.516 14.2603 125.039 14.6023 125.413 15.0823C125.787 15.5624 125.99 16.1532 125.991 16.7617C125.991 17.4889 125.703 18.1863 125.189 18.7009C124.675 19.2155 123.978 19.5051 123.251 19.5061V19.4867ZM114.575 12.251C113.929 12.2547 113.303 12.4774 112.799 12.8828C112.296 13.2882 111.945 13.8523 111.803 14.483C111.786 14.5637 111.742 14.6366 111.68 14.691C111.618 14.7455 111.54 14.7787 111.458 14.7858C110.942 14.8145 110.459 15.0451 110.112 15.4278C109.765 15.8105 109.583 16.3144 109.605 16.8305C109.626 17.3465 109.851 17.8331 110.229 18.185C110.607 18.5368 111.109 18.7255 111.625 18.7103H123.27C123.77 18.7108 124.251 18.5208 124.616 18.179C124.98 17.8372 125.201 17.3693 125.232 16.8706C125.264 16.3719 125.105 15.8798 124.786 15.4947C124.468 15.1095 124.014 14.8602 123.519 14.7975C123.425 14.7851 123.339 14.7389 123.276 14.6674C123.214 14.5959 123.18 14.5041 123.181 14.4093C123.185 13.6283 122.933 12.8675 122.465 12.2427C121.997 11.6178 121.337 11.1631 120.586 10.9477C119.835 10.7324 119.035 10.7682 118.307 11.0497C117.578 11.3312 116.962 11.843 116.551 12.5072C116.497 12.5934 116.412 12.655 116.313 12.679C116.214 12.7029 116.11 12.6872 116.023 12.6353C115.584 12.3784 115.084 12.2455 114.575 12.251Z" fill="#DFEAEF"/>
<path d="M77.9967 14.0366C77.9957 14.6612 77.7471 15.2599 77.3054 15.7016C76.8638 16.1433 76.265 16.3918 75.6404 16.3929H63.995C63.5295 16.3929 63.0745 16.2548 62.6875 15.996C62.3006 15.7373 61.9991 15.3696 61.8212 14.9394C61.6433 14.5093 61.5971 14.036 61.6883 13.5796C61.7795 13.1231 62.0041 12.704 62.3336 12.3752C62.7233 11.9793 63.2431 11.738 63.797 11.6959C63.953 10.9769 64.3504 10.3329 64.9232 9.87107C65.4959 9.40922 66.2094 9.1573 66.9452 9.15719C67.5185 9.15535 68.0818 9.30823 68.5755 9.59971C69.0288 8.8644 69.7096 8.2971 70.5147 7.984C71.3197 7.6709 72.205 7.62909 73.0359 7.86494C73.8669 8.10079 74.5982 8.6014 75.1187 9.29074C75.6392 9.98007 75.9205 10.8205 75.9199 11.6842V11.7075C76.4909 11.7749 77.0175 12.049 77.4001 12.4782C77.7827 12.9073 77.995 13.4617 77.9967 14.0366Z" fill="white"/>
<path d="M75.6405 16.781H63.995C63.3173 16.7727 62.6667 16.5138 62.1684 16.0543C61.6702 15.5949 61.3596 14.9673 61.2964 14.2925C61.2333 13.6177 61.4221 12.9434 61.8265 12.3994C62.2308 11.8555 62.8221 11.4805 63.4865 11.3465C63.6354 10.8522 63.8885 10.3956 64.2286 10.0073C64.5688 9.61897 64.9882 9.30807 65.4587 9.09548C65.9291 8.88289 66.4396 8.77355 66.9558 8.77481C67.472 8.77608 67.982 8.88793 68.4514 9.10282C68.9817 8.38623 69.7189 7.84944 70.5637 7.56481C71.4085 7.28018 72.3202 7.2614 73.176 7.51099C74.0319 7.76058 74.7906 8.26655 75.3499 8.9607C75.9093 9.65484 76.2423 10.5038 76.3043 11.3931C76.8933 11.5438 77.4154 11.886 77.7886 12.366C78.1617 12.846 78.3647 13.4364 78.3655 14.0444C78.3655 14.7716 78.0769 15.469 77.5631 15.9836C77.0492 16.4982 76.3522 16.7878 75.625 16.7888L75.6405 16.781ZM66.9646 9.54535C66.3159 9.54497 65.6865 9.76598 65.1804 10.1718C64.6743 10.5777 64.3219 11.1441 64.1814 11.7774C64.1633 11.8586 64.1196 11.9319 64.0567 11.9865C63.9938 12.041 63.915 12.0738 63.832 12.0802C63.3448 12.1226 62.8909 12.3448 62.5587 12.7036C62.2264 13.0624 62.0396 13.5321 62.0347 14.0211C62.0347 14.5424 62.2416 15.0424 62.6098 15.4113C62.978 15.7803 63.4776 15.9881 63.9989 15.9891H75.6444C76.1444 15.9906 76.6263 15.8014 76.9916 15.4599C77.3569 15.1184 77.5782 14.6504 77.6104 14.1514C77.6426 13.6523 77.4832 13.1598 77.1648 12.7742C76.8463 12.3886 76.3928 12.139 75.8967 12.0763C75.802 12.0648 75.7148 12.019 75.6518 11.9474C75.5888 11.8758 75.5544 11.7835 75.5551 11.6881C75.5605 10.9068 75.3102 10.1453 74.8423 9.51958C74.3744 8.89392 73.7146 8.43854 72.9636 8.22298C72.2127 8.00741 71.4118 8.0435 70.6833 8.32572C69.9548 8.60795 69.3386 9.12081 68.9288 9.78602C68.8751 9.87219 68.7897 9.93386 68.691 9.9578C68.5923 9.98175 68.4882 9.96607 68.4009 9.91412C67.9636 9.66536 67.4677 9.53804 66.9646 9.54535Z" fill="#DFEAEF"/>
<path d="M100.764 13.1283C103.225 13.1283 105.22 11.1331 105.22 8.67195C105.22 6.21079 103.225 4.21563 100.764 4.21563C98.3024 4.21563 96.3072 6.21079 96.3072 8.67195C96.3072 11.1331 98.3024 13.1283 100.764 13.1283Z" fill="#FFBC0E"/>
<path d="M100.764 13.5164C99.8053 13.5172 98.8683 13.2337 98.0711 12.7019C97.2739 12.17 96.6524 11.4137 96.2851 10.5285C95.9179 9.6434 95.8214 8.66921 96.0079 7.72922C96.1943 6.78922 96.6554 5.92565 97.3328 5.24774C98.0101 4.56984 98.8734 4.10806 99.8132 3.92082C100.753 3.73358 101.727 3.82929 102.613 4.19585C103.498 4.5624 104.255 5.18333 104.788 5.98009C105.32 6.77684 105.604 7.71363 105.604 8.67195C105.602 9.95549 105.092 11.1859 104.184 12.0939C103.277 13.0019 102.047 13.5134 100.764 13.5164ZM100.764 4.58829C99.9587 4.58752 99.1716 4.82556 98.502 5.27227C97.8324 5.71899 97.3104 6.35431 97.002 7.09782C96.6936 7.84133 96.6127 8.65962 96.7696 9.44912C96.9264 10.2386 97.314 10.9639 97.8831 11.533C98.4523 12.1022 99.1775 12.4897 99.967 12.6466C100.757 12.8034 101.575 12.7225 102.318 12.4141C103.062 12.1058 103.697 11.5837 104.144 10.9141C104.591 10.2445 104.829 9.45747 104.828 8.65254C104.821 7.57863 104.39 6.55103 103.628 5.79347C102.867 5.0359 101.838 4.60971 100.764 4.60769V4.58829Z" fill="#093F68"/>
</svg>
